<svg width="80" height="42" xmlns="http://www.w3.org/2000/svg">
  <defs>
    <style>
      .cls-1 {
        clip-path: url(#clip-Logo);
      }

      .cls-2 {
        fill: #fff;
        stroke: rgba(0, 0, 0, 0);
      }
    </style>
    <clipPath id="clip-Logo">
      <rect width="80" height="42" id="svg_1" />
    </clipPath>
  </defs>
  <g>
    <title>background</title>
    <rect x="-1" y="-1" width="82" height="44" id="canvas_background" fill="#000000" />
  </g>
  <g>
    <title>Layer 1</title>
    <g stroke="null" id="Logo" class="cls-1">
      <path stroke="null" id="logo_qubits_pequeño" class="cls-2"
        d="m56.09417,38.45903l0.13563,-0.40852a1.61459,2.46093 0 0 0 1.085,0.60539c0.61354,0 0.88156,-0.39375 0.88156,-0.88594c0,-1.3732 -2.02146,-0.53156 -2.02146,-2.38219c0,-0.73828 0.37459,-1.3732 1.21094,-1.3732a1.85677,2.83008 0 0 1 1.01719,0.44297l-0.11625,0.42328a1.69531,2.58398 0 0 0 -0.90094,-0.41344c-0.60063,0 -0.86865,0.40852 -0.86865,0.91055c0,1.3732 2.02146,0.54141 2.02146,2.36742c0,0.73828 -0.38427,1.36828 -1.22385,1.36828a1.77927,2.71195 0 0 1 -1.22063,-0.65461l0,-0.00001zm-13.26541,-1.89491a1.65334,2.51999 0 0 1 1.7276,-2.54952a1.65334,2.51999 0 0 1 1.72115,2.54952a1.65334,2.51999 0 0 1 -1.72115,2.5446a1.65334,2.51999 0 0 1 -1.7276,-2.5446zm0.34229,0a1.33688,2.03766 0 0 0 1.38531,2.07211a1.33041,2.0278 0 0 0 1.37563,-2.07211a1.33041,2.0278 0 0 0 -1.37563,-2.07703a1.33688,2.03766 0 0 0 -1.38531,2.07703zm-11.3699,0.36421l0,-2.86945l0.34875,0l0,2.84484c0,1.18617 0.3649,1.7325 1.00427,1.7325s1.01073,-0.54141 1.01073,-1.7325l0,-2.84484l0.32291,0l0,2.86945a1.25938,1.91952 0 0 1 -1.34656,2.18039a1.2626,1.92445 0 0 1 -1.3401,-2.18039zm-4.11073,1.53071l0.13563,-0.40852a1.61459,2.46093 0 0 0 1.085,0.60539c0.61354,0 0.88156,-0.39375 0.88156,-0.88594c0,-1.3732 -2.02146,-0.53156 -2.02146,-2.38219c0,-0.73828 0.37459,-1.3732 1.21094,-1.3732a1.85677,2.83008 0 0 1 1.02041,0.44297l-0.11625,0.42328a1.69531,2.58398 0 0 0 -0.90094,-0.41344c-0.60063,0 -0.86865,0.40852 -0.86865,0.91055c0,1.3732 2.02146,0.54141 2.02146,2.36742c0,0.73828 -0.38427,1.36828 -1.22385,1.36828a1.77927,2.71195 0 0 1 -1.22385,-0.65461l0,-0.00001zm-9.61,-1.89491a1.65334,2.51999 0 0 1 1.7276,-2.54952a1.65334,2.51999 0 0 1 1.72438,2.54952a1.65334,2.51999 0 0 1 -1.72438,2.5446a1.65334,2.51999 0 0 1 -1.7276,-2.5446zm0.34229,0a1.33688,2.03766 0 0 0 1.38531,2.07211a1.33041,2.0278 0 0 0 1.37563,-2.07211a1.33041,2.0278 0 0 0 -1.37563,-2.07703a1.33688,2.03766 0 0 0 -1.38531,2.07703zm-4.52084,0a1.6501,2.51507 0 0 1 1.72115,-2.54952a1.58875,2.42156 0 0 1 1.20125,0.72843l-0.21959,0.33469a1.29166,1.96874 0 0 0 -0.96875,-0.59554a1.34334,2.0475 0 0 0 -1.38854,2.07703a1.34334,2.0475 0 0 0 1.38854,2.07211a1.29166,1.96874 0 0 0 0.96875,-0.60047l0.21959,0.33469a1.59521,2.4314 0 0 1 -1.20771,0.73828a1.6501,2.51507 0 0 1 -1.705,-2.53968l-0.00969,0l0,-0.00001l0,-0.00002zm38.42709,2.50523l0,-5.01046l2.26041,0l0,0.45774l-1.90521,0l0,1.78171l1.69854,0l0,0.45282l-1.69854,0l0,1.86047l1.97625,0l0,0.45774l-2.33146,0l0.00001,-0.00001zm-2.08927,0l-0.7524,-1.60945a2.39281,3.6471 0 0 1 -0.26479,0l-0.88156,0l0,1.58977l-0.34875,0l0,-5.01046l1.23031,0c0.83635,0 1.34334,0.64476 1.34334,1.71773a1.01719,1.55039 0 0 1 -0.74916,1.575l0.80406,1.71773l-0.38104,0.01969l-0.00001,-0.00001zm-1.89552,-2.03766l0.87188,0c0.64584,0 1.00427,-0.46265 1.00427,-1.25015s-0.34875,-1.26 -1.00427,-1.26l-0.87188,0l0,2.51015zm-8.12459,2.03766l0,-4.55273l-1.15604,0l0,-0.45774l2.6576,0l0,0.45774l-1.15604,0l0,4.55273l-0.34552,0zm-3.73291,0l0,-5.01046l0.34875,0l0,4.55273l1.84063,0l0,0.45774l-2.18938,0zm-10.77896,0l-2.11188,-4.06546l0,4.06546l-0.34875,0l0,-5.01046l0.2874,0l2.11834,4.06546l0,-4.06546l0.34229,0l0,5.01046l-0.2874,0zm-18.59031,-13.18076a10.38177,15.8238 0 0 0 -1.09146,-1.44702a5.10209,7.77655 0 0 1 -4.77594,-7.75194l0,-7.03335a5.10209,7.77655 0 0 1 5.09563,-7.7667a5.10209,7.77655 0 0 1 5.09563,7.7667l0,7.03335a5.09563,7.7667 0 0 1 -2.34115,6.53131a8.28604,12.62952 0 0 0 1.9375,2.20008c0.60063,0.45774 1.05594,0.55617 1.24969,0.26085a0.09365,0.14274 0 0 1 0.10334,-0.03445a0.08073,0.12305 0 0 1 0.03229,0.03445a0.09688,0.14765 0 0 1 0,0.20672a3.72646,5.67984 0 0 1 -2.65115,1.67343a3.72323,5.67491 0 0 1 -2.65115,-1.67836l-0.00323,0.00492l0.00001,0.00001l-0.00001,0zm-3.22916,-2.72672a4.87604,7.43202 0 0 0 1.59198,0.88594a2.28302,3.47977 0 0 1 -0.4101,-0.52172l0,0a2.20875,3.36656 0 0 0 -0.91709,-0.42821a0.5425,0.82687 0 0 0 -0.25188,0.05906l-0.01291,0.00492zm5.0601,-0.15257a4.90188,7.47139 0 0 0 2.29271,-6.31968l0,-7.03335a4.90834,7.48124 0 0 0 -4.9051,-7.47139c-1.35625,0 -2.4574,3.35179 -2.4574,7.47139l0,7.03335a7.91469,12.0635 0 0 0 0.72979,5.3107a3.73291,5.68968 0 0 1 1.71146,-0.63a3.72646,5.67984 0 0 1 2.64146,1.63406l-0.01291,0.00492l-0.00001,0zm63.4725,1.44702l-1.74052,0a0.09688,0.14765 0 0 1 -0.09688,-0.14765a0.09688,0.14765 0 0 1 0.09688,-0.14765l0.56188,0a1.085,1.65375 0 0 0 1.08177,-1.65375l0,-20.32732l-2.49938,0a1.085,1.65375 0 0 0 -1.085,1.65375l0,0.8564a0.09688,0.14765 0 0 1 -0.09688,0.14765a0.09688,0.14765 0 0 1 -0.09688,-0.14765l0,-2.65289a0.09688,0.14765 0 0 1 0.09688,-0.14765l10.01041,0a0.09688,0.14765 0 0 1 0.09688,0.14765l0,2.65289a0.09688,0.14765 0 0 1 -0.09688,0.14765a0.09688,0.14765 0 0 1 -0.09688,-0.14765l0,-0.8564a1.085,1.65375 0 0 0 -1.085,-1.65375l-3.13875,0a1.3175,2.00811 0 0 1 0.64584,1.72265l0,18.60959a1.085,1.65375 0 0 0 1.085,1.65375l0.56188,0a0.09688,0.14765 0 0 1 0.09688,0.14765a0.09688,0.14765 0 0 1 -0.09688,0.14765l-4.19791,0l-0.00646,-0.00492zm-13.33969,0a3.75552,5.72413 0 0 1 -3.55209,-3.90796l0,3.7603a0.09688,0.14765 0 0 1 -0.09688,0.14765a0.09688,0.14765 0 0 1 -0.09688,-0.14765l0,-5.56662a0.09688,0.14765 0 0 1 0.09688,-0.14765a0.09688,0.14765 0 0 1 0.09688,0.14765a3.55209,5.41405 0 0 0 3.55209,5.41405l2.69313,0c0.53604,0 1.11084,-2.18039 1.11084,-5.41405s-0.57156,-5.41405 -1.11084,-5.41405a0.09688,0.14765 0 0 1 -0.09688,-0.14765a0.09688,0.14765 0 0 1 0.09688,-0.14765a3.75229,5.71921 0 0 1 3.74906,5.71429a3.75229,5.71921 0 0 1 -3.74906,5.71429l-2.69313,-0.00492l0,-0.00001zm-7.44646,0l-5.3701,0a0.09688,0.14765 0 0 1 -0.09688,-0.14765a0.09688,0.14765 0 0 1 0.09688,-0.14765l0.56188,0a1.085,1.65375 0 0 0 1.08177,-1.55531l0,-7.56983a1.32073,2.01305 0 0 1 0.82666,-1.86539a1.32073,2.01305 0 0 1 -0.82666,-1.86539l0,-7.56983a1.085,1.65375 0 0 0 -1.08177,-1.55531l-0.56188,0a0.09688,0.14765 0 0 1 -0.09688,-0.14765a0.09688,0.14765 0 0 1 0.09688,-0.14765l5.92875,0a0.09688,0.14765 0 0 1 0.09688,0.14765a0.09688,0.14765 0 0 1 -0.09688,0.14765l-0.56188,0a1.085,1.65375 0 0 0 -1.085,1.65375l0,7.47139a1.32073,2.01305 0 0 1 -0.82666,1.86539a1.32073,2.01305 0 0 1 0.82666,1.86539l0,7.47139a1.085,1.65375 0 0 0 1.085,1.65375l0.56188,0a0.09688,0.14765 0 0 1 0.09688,0.14765a0.09688,0.14765 0 0 1 -0.09688,0.14765l-0.55865,0zm-16.14584,0l-4.19791,0a0.09688,0.14765 0 0 1 -0.09688,-0.14765a0.09688,0.14765 0 0 1 0.09688,-0.14765l0.56188,0a1.085,1.65375 0 0 0 1.085,-1.65375l0,-18.65388a1.085,1.65375 0 0 0 -1.085,-1.65375l-0.56188,0a0.09688,0.14765 0 0 1 -0.09688,-0.14765a0.09688,0.14765 0 0 1 0.09688,-0.14765l8.07291,0a3.75552,5.72413 0 0 1 3.74906,5.71429a3.75552,5.72413 0 0 1 -2.90625,5.57156a3.75552,5.72413 0 0 1 2.90625,5.56662a3.75552,5.72413 0 0 1 -3.74906,5.71429l-3.875,-0.01476l0,0.00001l0,-0.00001zm0.09688,-13.15123a1.32396,2.01796 0 0 1 -0.82666,1.86539a1.32396,2.01796 0 0 1 0.82666,1.86539l0,9.12514l3.80396,0c0.53604,0 1.11084,-2.18039 1.11084,-5.41405s-0.57479,-5.41405 -1.11084,-5.41405l-1.34656,0a0.09688,0.14765 0 0 1 -0.09688,-0.14765a0.09688,0.14765 0 0 1 0.09688,-0.14765l1.34656,0c0.53604,0 1.11084,-2.18039 1.11084,-5.41405s-0.57479,-5.41405 -1.11084,-5.41405l-3.80396,0l0,9.09562l0,-0.00002zm-19.34594,5.38452l0,-12.83623a1.085,1.65375 0 0 0 -1.085,-1.65375l-0.56188,0a0.09688,0.14765 0 0 1 -0.09688,-0.14765a0.09688,0.14765 0 0 1 0.09688,-0.14765l5.92875,0a0.09688,0.14765 0 0 1 0.09688,0.14765a0.09688,0.14765 0 0 1 -0.09688,0.14765l-0.56188,0a1.085,1.65375 0 0 0 -1.085,1.65375l0,12.85592c0,4.1196 1.10115,7.47632 2.4574,7.47632a4.90834,7.48124 0 0 0 4.90188,-7.47632l0,-12.85592a1.085,1.65375 0 0 0 -1.085,-1.65375l-0.56188,0a0.09688,0.14765 0 0 1 -0.09688,-0.14765a0.09688,0.14765 0 0 1 0.09688,-0.14765l3.48427,0a0.09688,0.14765 0 0 1 0.09688,0.14765a0.09688,0.14765 0 0 1 -0.09688,0.14765l-0.56188,0a1.085,1.65375 0 0 0 -1.085,1.65375l0,12.85592a5.10209,7.77655 0 0 1 -5.09563,7.7667a5.10209,7.77655 0 0 1 -5.07625,-7.79131l-0.01291,0.00492l-0.00001,0l0.00002,0zm39.07292,-9.08577a3.75229,5.71921 0 0 1 3.74906,-5.71429l2.69313,0a3.75552,5.72413 0 0 1 3.55209,3.90796l0,-3.7603a0.09688,0.14765 0 0 1 0.09688,-0.14765a0.09688,0.14765 0 0 1 0.09688,0.14765l0,5.56662a0.09688,0.14765 0 0 1 -0.09688,0.14765a0.09688,0.14765 0 0 1 -0.09688,-0.14765a3.55209,5.41405 0 0 0 -3.55209,-5.41405l-2.69313,0c-0.53604,0 -1.11084,2.18039 -1.11084,5.41405s0.57479,5.41405 1.11084,5.41405a0.09688,0.14765 0 0 1 0.09688,0.14765a0.09688,0.14765 0 0 1 -0.09688,0.14765a3.75229,5.71921 0 0 1 -3.72,-5.71429l-0.02906,0.00492l0,0.00001z" />
    </g>
  </g>
</svg>