<svg width="250" height="80" xmlns="http://www.w3.org/2000/svg">
    <!-- Created with Method Draw - http://github.com/duopixel/Method-Draw/ -->

    <g>
        <title>background</title>
        <rect x="-1" y="-1" width="252" height="82" id="canvas_background" fill="none" />
        <g id="canvasGrid" display="none">
            <rect id="svg_1" width="100%" height="100%" x="0" y="0" stroke-width="0" fill="url(#gridpattern)" />
        </g>
    </g>
    <g>
        <title>Layer 1</title>
    </g>
    <g>
        <title>Layer 2</title>
        <path stroke="null"
            d="m176.709,76.93245l0.43575,-0.8401a5.1875,5.06087 0 0 0 3.486,1.24497c1.97125,0 2.83237,-0.80974 2.83237,-1.82191c0,-2.82396 -6.49475,-1.09315 -6.49475,-4.89892c0,-1.51826 1.2035,-2.82396 3.89062,-2.82396a5.96562,5.82 0 0 1 3.26812,0.91096l-0.3735,0.87047a5.44687,5.31391 0 0 0 -2.89462,-0.85023c-1.92975,0 -2.79087,0.8401 -2.79087,1.87252c0,2.82396 6.49475,1.11339 6.49475,4.86856c0,1.51826 -1.23462,2.81384 -3.93212,2.81384a5.71662,5.57708 0 0 1 -3.92175,-1.34619zm-42.6205,-3.89687a5.312,5.18233 0 0 1 5.55062,-5.24306a5.312,5.18233 0 0 1 5.52987,5.24306a5.312,5.18233 0 0 1 -5.52987,5.23294a5.312,5.18233 0 0 1 -5.55062,-5.23294zm1.09975,0a4.29525,4.1904 0 0 0 4.45087,4.26125a4.2745,4.17016 0 0 0 4.41975,-4.26125a4.2745,4.17016 0 0 0 -4.41975,-4.27137a4.29525,4.1904 0 0 0 -4.45087,4.27137zm-36.53037,0.74901l0,-5.90097l1.1205,0l0,5.85036c0,2.43934 1.17237,3.56285 3.22662,3.56285s3.24737,-1.11339 3.24737,-3.56285l0,-5.85036l1.0375,0l0,5.90097a4.04625,3.94748 0 0 1 -4.32637,4.48393a4.05662,3.9576 0 0 1 -4.30562,-4.48393zm-13.20737,3.14786l0.43575,-0.8401a5.1875,5.06087 0 0 0 3.486,1.24497c1.97125,0 2.83237,-0.80974 2.83237,-1.82191c0,-2.82396 -6.49475,-1.09315 -6.49475,-4.89892c0,-1.51826 1.2035,-2.82396 3.89062,-2.82396a5.96562,5.82 0 0 1 3.2785,0.91096l-0.3735,0.87047a5.44687,5.31391 0 0 0 -2.89462,-0.85023c-1.92975,0 -2.79087,0.8401 -2.79087,1.87252c0,2.82396 6.49475,1.11339 6.49475,4.86856c0,1.51826 -1.23462,2.81384 -3.93212,2.81384a5.71662,5.57708 0 0 1 -3.93212,-1.34619zm-30.876,-3.89687a5.312,5.18233 0 0 1 5.55062,-5.24306a5.312,5.18233 0 0 1 5.54025,5.24306a5.312,5.18233 0 0 1 -5.54025,5.23294a5.312,5.18233 0 0 1 -5.55062,-5.23294zm1.09975,0a4.29525,4.1904 0 0 0 4.45087,4.26125a4.2745,4.17016 0 0 0 4.41975,-4.26125a4.2745,4.17016 0 0 0 -4.41975,-4.27137a4.29525,4.1904 0 0 0 -4.45087,4.27137zm-14.525,0a5.30162,5.17221 0 0 1 5.52987,-5.24306a5.1045,4.97989 0 0 1 3.8595,1.49802l-0.7055,0.68828a4.15,4.04869 0 0 0 -3.1125,-1.22473a4.316,4.21064 0 0 0 -4.46125,4.27137a4.316,4.21064 0 0 0 4.46125,4.26125a4.15,4.04869 0 0 0 3.1125,-1.23485l0.7055,0.68828a5.12525,5.00014 0 0 1 -3.88025,1.51826a5.30162,5.17221 0 0 1 -5.478,-5.22282l-0.03112,0zm123.4625,5.15196l0,-10.30393l7.2625,0l0,0.94132l-6.12125,0l0,3.66407l5.45725,0l0,0.9312l-5.45725,0l0,3.82602l6.3495,0l0,0.94132l-7.49075,0zm-6.71262,0l-2.41737,-3.30981a7.68787,7.50021 0 0 1 -0.85075,0l-2.83237,0l0,3.26932l-1.1205,0l0,-10.30393l3.95287,0c2.68712,0 4.316,1.32595 4.316,3.53249a3.26812,3.18835 0 0 1 -2.407,3.23896l2.58337,3.53249l-1.22425,0.04049zm-6.09012,-4.1904l2.80125,0c2.075,0 3.22662,-0.95144 3.22662,-2.57092s-1.1205,-2.59116 -3.22662,-2.59116l-2.80125,0l0,5.16209zm-26.1035,4.1904l0,-9.36261l-3.71425,0l0,-0.94132l8.53862,0l0,0.94132l-3.71425,0l0,9.36261l-1.11012,0zm-11.9935,0l0,-10.30393l1.1205,0l0,9.36261l5.91375,0l0,0.94132l-7.03425,0zm-34.63175,0l-6.78525,-8.36055l0,8.36055l-1.1205,0l0,-10.30393l0.92337,0l6.806,8.36055l0,-8.36055l1.09975,0l0,10.30393l-0.92337,0zm-59.72887,-27.10601a33.35562,32.54139 0 0 0 -3.50675,-2.97579a16.3925,15.99234 0 0 1 -15.34462,-15.94174l0,-14.46396a16.3925,15.99234 0 0 1 16.37175,-15.9721a16.3925,15.99234 0 0 1 16.37175,15.9721l0,14.46396a16.37175,15.9721 0 0 1 -7.52187,13.43155a26.62225,25.97238 0 0 0 6.225,4.52442c1.92975,0.94132 3.39262,1.14376 4.01512,0.53645a0.30087,0.29353 0 0 1 0.332,-0.07085a0.25937,0.25304 0 0 1 0.10375,0.07085a0.31125,0.30365 0 0 1 0,0.42511a11.97275,11.68048 0 0 1 -8.51787,3.44139a11.96237,11.67036 0 0 1 -8.51787,-3.45151l-0.01037,0.01012zm-10.375,-5.60744a15.66625,15.28382 0 0 0 5.11487,1.82191a7.33512,7.15607 0 0 1 -1.31762,-1.0729l0,0a7.0965,6.92327 0 0 0 -2.9465,-0.88059a1.743,1.70045 0 0 0 -0.80925,0.12146l-0.0415,0.01012zm16.25762,-0.31377a15.74925,15.3648 0 0 0 7.36625,-12.99631l0,-14.46396a15.77,15.38504 0 0 0 -15.75962,-15.3648c-4.3575,0 -7.89537,6.8929 -7.89537,15.3648l0,14.46396a25.42912,24.80838 0 0 0 2.34475,10.92135a11.9935,11.70073 0 0 1 5.49875,-1.29558a11.97275,11.68048 0 0 1 8.48675,3.36042l-0.0415,0.01012zm203.93099,2.97579l-5.59212,0a0.31125,0.30365 0 0 1 -0.31125,-0.30365a0.31125,0.30365 0 0 1 0.31125,-0.30365l1.80525,0a3.486,3.4009 0 0 0 3.47562,-3.4009l0,-41.80277l-8.03025,0a3.486,3.4009 0 0 0 -3.486,3.4009l0,1.76118a0.31125,0.30365 0 0 1 -0.31125,0.30365a0.31125,0.30365 0 0 1 -0.31125,-0.30365l0,-5.45562a0.31125,0.30365 0 0 1 0.31125,-0.30365l32.1625,0a0.31125,0.30365 0 0 1 0.31125,0.30365l0,5.45562a0.31125,0.30365 0 0 1 -0.31125,0.30365a0.31125,0.30365 0 0 1 -0.31125,-0.30365l0,-1.76118a3.486,3.4009 0 0 0 -3.486,-3.4009l-10.0845,0a4.233,4.12967 0 0 1 2.075,3.54261l0,38.27029a3.486,3.4009 0 0 0 3.486,3.4009l1.80525,0a0.31125,0.30365 0 0 1 0.31125,0.30365a0.31125,0.30365 0 0 1 -0.31125,0.30365l-13.4875,0l-0.02075,-0.01012zm-42.85912,0a12.06612,11.77158 0 0 1 -11.4125,-8.03666l0,7.73301a0.31125,0.30365 0 0 1 -0.31125,0.30365a0.31125,0.30365 0 0 1 -0.31125,-0.30365l0,-11.44768a0.31125,0.30365 0 0 1 0.31125,-0.30365a0.31125,0.30365 0 0 1 0.31125,0.30365a11.4125,11.13391 0 0 0 11.4125,11.13391l8.65275,0c1.72225,0 3.569,-4.48393 3.569,-11.13391s-1.83637,-11.13391 -3.569,-11.13391a0.31125,0.30365 0 0 1 -0.31125,-0.30365a0.31125,0.30365 0 0 1 0.31125,-0.30365a12.05575,11.76146 0 0 1 12.04537,11.75134a12.05575,11.76146 0 0 1 -12.04537,11.75134l-8.65275,-0.01012zm-23.92475,0l-17.25362,0a0.31125,0.30365 0 0 1 -0.31125,-0.30365a0.31125,0.30365 0 0 1 0.31125,-0.30365l1.80525,0a3.486,3.4009 0 0 0 3.47562,-3.19847l0,-15.56723a4.24337,4.13979 0 0 1 2.656,-3.83614a4.24337,4.13979 0 0 1 -2.656,-3.83614l0,-15.56723a3.486,3.4009 0 0 0 -3.47562,-3.19847l-1.80525,0a0.31125,0.30365 0 0 1 -0.31125,-0.30365a0.31125,0.30365 0 0 1 0.31125,-0.30365l19.0485,0a0.31125,0.30365 0 0 1 0.31125,0.30365a0.31125,0.30365 0 0 1 -0.31125,0.30365l-1.80525,0a3.486,3.4009 0 0 0 -3.486,3.4009l0,15.3648a4.24337,4.13979 0 0 1 -2.656,3.83614a4.24337,4.13979 0 0 1 2.656,3.83614l0,15.3648a3.486,3.4009 0 0 0 3.486,3.4009l1.80525,0a0.31125,0.30365 0 0 1 0.31125,0.30365a0.31125,0.30365 0 0 1 -0.31125,0.30365l-1.79487,0zm-51.875,0l-13.4875,0a0.31125,0.30365 0 0 1 -0.31125,-0.30365a0.31125,0.30365 0 0 1 0.31125,-0.30365l1.80525,0a3.486,3.4009 0 0 0 3.486,-3.4009l0,-38.36138a3.486,3.4009 0 0 0 -3.486,-3.4009l-1.80525,0a0.31125,0.30365 0 0 1 -0.31125,-0.30365a0.31125,0.30365 0 0 1 0.31125,-0.30365l25.9375,0a12.06612,11.77158 0 0 1 12.04537,11.75134a12.06612,11.77158 0 0 1 -9.3375,11.45781a12.06612,11.77158 0 0 1 9.3375,11.44768a12.06612,11.77158 0 0 1 -12.04537,11.75134l-12.45,-0.03037zm0.31125,-27.04528a4.25375,4.14991 0 0 1 -2.656,3.83614a4.25375,4.14991 0 0 1 2.656,3.83614l0,18.7657l12.22175,0c1.72225,0 3.569,-4.48393 3.569,-11.13391s-1.84675,-11.13391 -3.569,-11.13391l-4.32637,0a0.31125,0.30365 0 0 1 -0.31125,-0.30365a0.31125,0.30365 0 0 1 0.31125,-0.30365l4.32637,0c1.72225,0 3.569,-4.48393 3.569,-11.13391s-1.84675,-11.13391 -3.569,-11.13391l-12.22175,0l0,18.70497zm-62.15662,11.07318l0,-26.39749a3.486,3.4009 0 0 0 -3.486,-3.4009l-1.80525,0a0.31125,0.30365 0 0 1 -0.31125,-0.30365a0.31125,0.30365 0 0 1 0.31125,-0.30365l19.0485,0a0.31125,0.30365 0 0 1 0.31125,0.30365a0.31125,0.30365 0 0 1 -0.31125,0.30365l-1.80525,0a3.486,3.4009 0 0 0 -3.486,3.4009l0,26.43798c0,8.47189 3.53787,15.37492 7.89537,15.37492a15.77,15.38504 0 0 0 15.74925,-15.37492l0,-26.43798a3.486,3.4009 0 0 0 -3.486,-3.4009l-1.80525,0a0.31125,0.30365 0 0 1 -0.31125,-0.30365a0.31125,0.30365 0 0 1 0.31125,-0.30365l11.19462,0a0.31125,0.30365 0 0 1 0.31125,0.30365a0.31125,0.30365 0 0 1 -0.31125,0.30365l-1.80525,0a3.486,3.4009 0 0 0 -3.486,3.4009l0,26.43798a16.3925,15.99234 0 0 1 -16.37175,15.9721a16.3925,15.99234 0 0 1 -16.3095,-16.02271l-0.0415,0.01012zm125.5375,-18.68473a12.05575,11.76146 0 0 1 12.04537,-11.75134l8.65275,0a12.06612,11.77158 0 0 1 11.4125,8.03666l0,-7.73301a0.31125,0.30365 0 0 1 0.31125,-0.30365a0.31125,0.30365 0 0 1 0.31125,0.30365l0,11.44768a0.31125,0.30365 0 0 1 -0.31125,0.30365a0.31125,0.30365 0 0 1 -0.31125,-0.30365a11.4125,11.13391 0 0 0 -11.4125,-11.13391l-8.65275,0c-1.72225,0 -3.569,4.48393 -3.569,11.13391s1.84675,11.13391 3.569,11.13391a0.31125,0.30365 0 0 1 0.31125,0.30365a0.31125,0.30365 0 0 1 -0.31125,0.30365a12.05575,11.76146 0 0 1 -11.952,-11.75134l-0.09337,0.01012z"
            class="cls-2" id="logo_qubits_pequeño" />
    </g>
</svg>